<?xml version="1.0" encoding="UTF-8"?>
<svg xmlns="http://www.w3.org/2000/svg" viewBox="0 0 512 512">
  <defs>
    <style>
      .a { fill: none; stroke: #0a9396; stroke-width: 14; stroke-linecap: round; stroke-linejoin: round; }
      .b { fill: none; stroke: #005f73; stroke-width: 12; stroke-linecap: round; stroke-linejoin: round; }
      .c { fill: #005f73; }
      .ink { fill: none; stroke: #001219; stroke-width: 12; stroke-linecap: round; }
    </style>
  </defs>
  <g transform="translate(256,256)">
    <!-- Hexagons -->
    <polygon class="a" points="197,0 98.5,170.6 -98.5,170.6 -197,0 -98.5,-170.6 98.5,-170.6 197,0"/>
    <polygon class="b" points="145,0 72.5,125.3 -72.5,125.3 -145,0 -72.5,-125.3 72.5,-125.3 145,0"/>
    <!-- Inner chords -->
    <line class="a" x1="72.5" y1="-125.3" x2="-72.5" y2="125.3"/>
    <line class="a" x1="145" y1="0" x2="-145" y2="0"/>
    <line class="a" x1="-72.5" y1="-125.3" x2="72.5" y2="125.3"/>
    <!-- Nodes -->
    <g class="c">
      <circle r="12" cx="72.5" cy="-125.3"/>
      <circle r="12" cx="145" cy="0"/>
      <circle r="12" cx="72.5" cy="125.3"/>
      <circle r="12" cx="-72.5" cy="125.3"/>
      <circle r="12" cx="-145" cy="0"/>
      <circle r="12" cx="-72.5" cy="-125.3"/>
    </g>
    <!-- X motif -->
    <line class="ink" x1="-160" y1="-160" x2="160" y2="160"/>
    <line class="ink" x1="160" y1="-160" x2="-160" y2="160"/>
    <!-- Q motif -->
    <circle class="ink" cx="0" cy="0" r="70"/>
    <line class="ink" x1="42" y1="42" x2="92" y2="92"/>
  </g>
</svg>
